<svg width="43" height="42" viewBox="0 0 43 42" fill="none" xmlns="http://www.w3.org/2000/svg">
<path d="M5.211 29.785C5.45133 27.1343 6.26683 24.7001 7.6575 22.4822C9.04817 20.2656 10.9002 18.5039 13.2137 17.1972L10.482 12.4722C10.3303 12.2319 10.2918 11.9939 10.3665 11.7582C10.4435 11.5226 10.6051 11.3318 10.8512 11.186C11.0846 11.0635 11.3138 11.0402 11.539 11.116C11.763 11.1918 11.9491 11.3412 12.0972 11.564L14.836 16.3152C16.9593 15.4251 19.1807 14.98 21.5 14.98C23.8193 14.98 26.0407 15.4251 28.164 16.3152L30.9027 11.564C31.0509 11.3423 31.2376 11.193 31.4628 11.116C31.6868 11.0402 31.9154 11.0635 32.1487 11.186C32.3949 11.3318 32.5565 11.5226 32.6335 11.7582C32.7093 11.9939 32.6708 12.2319 32.518 12.4722L29.7863 17.1972C32.0998 18.5039 33.9518 20.2656 35.3425 22.4822C36.7332 24.7001 37.5487 27.1337 37.789 29.7832L5.211 29.785ZM14.101 25.711C14.6202 25.711 15.0577 25.5319 15.4135 25.1737C15.7693 24.8144 15.9472 24.3752 15.9472 23.856C15.9472 23.3368 15.7676 22.8993 15.4082 22.5435C15.0501 22.1877 14.6114 22.0097 14.0922 22.0097C13.5719 22.0097 13.1344 22.1888 12.7797 22.547C12.4239 22.9063 12.246 23.3456 12.246 23.8647C12.246 24.3851 12.4251 24.8226 12.7832 25.1772C13.1414 25.5319 13.5807 25.7098 14.101 25.711ZM28.9077 25.711C29.4281 25.711 29.8656 25.5319 30.2202 25.1737C30.5761 24.8144 30.754 24.3752 30.754 23.856C30.754 23.3368 30.5749 22.8993 30.2168 22.5435C29.8574 22.1877 29.4182 22.0097 28.899 22.0097C28.3798 22.0097 27.9423 22.1888 27.5865 22.547C27.2307 22.9063 27.0527 23.3456 27.0527 23.8647C27.0527 24.3851 27.2324 24.8226 27.5917 25.1772C27.9511 25.5319 28.3897 25.7098 28.9077 25.711Z" fill="#34A853"/>
</svg>
