<svg width="43" height="42" viewBox="0 0 43 42" fill="none" xmlns="http://www.w3.org/2000/svg">
<g id="simple-icons:huawei" clip-path="url(#clip0_12_167)">
<path id="Vector" d="M6.9225 10.745C6.9225 10.745 3.685 13.8425 3.51 17.115V17.7275C3.65 20.37 5.645 21.9275 5.645 21.9275C8.8475 25.06 16.6 28.9975 18.42 29.89C18.42 29.89 18.525 29.9425 18.595 29.8725L18.63 29.8025V29.7325C13.66 18.9 6.9225 10.745 6.9225 10.745ZM17.3875 32.55C17.3525 32.41 17.2125 32.41 17.2125 32.41L4.2975 32.865C5.6975 35.3675 8.06 37.2925 10.5275 36.715C12.2075 36.2775 16.0575 33.6 17.3175 32.69C17.4225 32.6025 17.3875 32.5325 17.3875 32.5325V32.55ZM17.5275 31.185C11.8575 27.3525 0.8675 21.49 0.8675 21.49C0.605 22.295 0.5175 23.065 0.5 23.765V23.8875C0.5 25.76 1.2 27.0725 1.2 27.0725C2.6 30.03 5.295 30.9225 5.295 30.9225C6.52 31.4475 7.745 31.465 7.745 31.465C7.955 31.5 15.445 31.465 17.44 31.465C17.5275 31.465 17.58 31.3775 17.58 31.3775V31.2725C17.58 31.22 17.5275 31.185 17.5275 31.185ZM16.355 5.58249C15.1142 5.8993 14.0078 6.60571 13.1983 7.59794C12.3887 8.59017 11.9188 9.81589 11.8575 11.095V11.8125C11.91 12.8625 12.1375 13.65 12.1375 13.65C13.2925 18.725 18.8925 27.0375 20.1 28.7875C20.1875 28.875 20.275 28.84 20.275 28.84C20.3086 28.8255 20.3368 28.8008 20.3557 28.7694C20.3745 28.738 20.383 28.7015 20.38 28.665C22.235 10.115 18.4375 5.17999 18.4375 5.17999C17.8775 5.21499 16.355 5.58249 16.355 5.58249ZM30.8782 9.55499C30.8782 9.55499 30.0208 6.40499 26.6082 5.56499C26.6082 5.56499 25.6108 5.31999 24.5607 5.17999C24.5607 5.17999 20.7458 10.0975 22.6007 28.6825C22.6182 28.805 22.7057 28.8225 22.7057 28.8225C22.8283 28.875 22.8807 28.77 22.8807 28.77C24.1407 26.9675 29.7058 18.69 30.8433 13.65C30.8433 13.65 31.4732 11.2 30.8782 9.55499ZM25.7682 32.4275C25.7682 32.4275 25.6458 32.4275 25.6108 32.515C25.6108 32.515 25.5933 32.6375 25.6632 32.69C26.8883 33.5825 30.6508 36.19 32.4533 36.715C32.4533 36.715 32.7332 36.8025 33.2057 36.82H33.4508C34.6583 36.785 36.7757 36.1725 38.7008 32.865L25.7507 32.4275H25.7682ZM39.4707 17.71C39.7157 14.105 36.0758 10.7625 36.0758 10.745C36.0758 10.745 29.3383 18.9 24.4033 29.645C24.4033 29.645 24.3507 29.785 24.4382 29.8725L24.5082 29.89H24.6133C26.4683 28.9625 34.1683 25.0425 37.3532 21.945C37.3532 21.945 39.3657 20.3175 39.4707 17.71ZM42.1307 21.455C42.1307 21.455 31.1408 27.3525 25.4708 31.1675C25.4708 31.1675 25.3833 31.2375 25.4183 31.36C25.4183 31.36 25.4708 31.465 25.5408 31.465C27.5707 31.465 35.2708 31.465 35.4632 31.43C35.4632 31.43 36.4608 31.395 37.6858 30.9225C37.6858 30.9225 40.4157 30.0475 41.8332 26.95C41.8332 26.95 43.1107 24.4125 42.1307 21.455Z" fill="#C80F2E"/>
</g>
<defs>
<clipPath id="clip0_12_167">
<rect width="42" height="42" fill="white" transform="translate(0.5)"/>
</clipPath>
</defs>
</svg>
