<svg width="43" height="42" viewBox="0 0 43 42" fill="none" xmlns="http://www.w3.org/2000/svg">
<path d="M30.3375 35.49C28.6225 37.1525 26.75 36.89 24.9475 36.1025C23.04 35.2975 21.29 35.2625 19.2775 36.1025C16.7575 37.1875 15.4275 36.8725 13.9225 35.49C5.3825 26.6875 6.6425 13.2825 16.3375 12.7925C18.7 12.915 20.345 14.0875 21.7275 14.1925C23.7925 13.7725 25.77 12.565 27.975 12.7225C30.6175 12.9325 32.6125 13.9825 33.925 15.8725C28.465 19.145 29.76 26.3375 34.765 28.35C33.7675 30.975 32.4725 33.5825 30.32 35.5075L30.3375 35.49ZM21.5525 12.6875C21.29 8.785 24.4575 5.565 28.0975 5.25C28.605 9.765 24.0025 13.125 21.5525 12.6875Z" fill="#0EA5E9"/>
</svg>
