<svg width="49" height="42" viewBox="0 0 49 42" fill="none" xmlns="http://www.w3.org/2000/svg">
<g clip-path="url(#clip0_12_84)">
<path d="M39.6942 13.5991C39.1924 13.4269 38.6862 13.2674 38.1763 13.1207C38.262 12.7707 38.3408 12.425 38.4108 12.0853C39.5599 6.50721 38.8087 2.01339 36.2429 0.53381C33.7827 -0.884611 29.7594 0.594415 25.6961 4.1307C25.2956 4.47985 24.904 4.83905 24.5217 5.20797C24.2658 4.96265 24.0053 4.72209 23.7405 4.48642C19.4819 0.70531 15.2134 -0.888295 12.6503 0.595521C10.1924 2.01836 9.46455 6.24286 10.4991 11.5293C10.602 12.0529 10.7182 12.5738 10.8476 13.0914C10.2434 13.2631 9.66037 13.4459 9.10239 13.6404C4.10955 15.3812 0.921051 18.1092 0.921051 20.9388C0.921051 23.8613 4.34405 26.7927 9.54431 28.5701C9.96591 28.7136 10.391 28.8466 10.8192 28.9689C10.6802 29.5265 10.5567 30.0878 10.449 30.6522C9.46271 35.847 10.2329 39.9716 12.6842 41.3854C15.216 42.8455 19.4653 41.3449 23.6029 37.7279C23.9384 37.4339 24.2665 37.1315 24.5869 36.8211C25.001 37.2205 25.426 37.6084 25.8617 37.9842C29.8697 41.433 33.8281 42.8256 36.2769 41.4079C38.8063 39.9436 39.6285 35.5126 38.5612 30.1217C38.4771 29.6994 38.3828 29.2791 38.2784 28.8613C38.5768 28.7729 38.8697 28.6819 39.1552 28.5872C44.5614 26.7962 48.0789 23.9004 48.0789 20.9388C48.0789 18.0988 44.7875 15.3524 39.6942 13.5991ZM38.5217 26.6751C38.2638 26.7604 37.9993 26.8428 37.7296 26.9229C37.1328 25.0334 36.3274 23.0244 35.3417 20.9486C36.2823 18.9223 37.0567 16.9389 37.6368 15.0618C38.1192 15.2014 38.5873 15.3486 39.0386 15.5039C43.4026 17.0063 46.0644 19.2273 46.0644 20.9388C46.0644 22.7618 43.1896 25.1283 38.5217 26.6751ZM36.5849 30.513C37.0569 32.8967 37.1241 35.0519 36.8115 36.7369C36.5308 38.2509 35.966 39.2602 35.2675 39.6645C33.7814 40.5248 30.6033 39.4067 27.1757 36.4571C26.7705 36.1077 26.3751 35.7471 25.9899 35.3758C27.3188 33.9225 28.6468 32.2331 29.9429 30.3568C32.2227 30.1545 34.3764 29.8237 36.3296 29.3722C36.4237 29.7504 36.5088 30.1307 36.5849 30.513ZM16.9982 39.5159C15.5463 40.0285 14.3898 40.0433 13.6907 39.6402C12.2032 38.7824 11.5848 35.4704 12.4283 31.028C12.5286 30.5031 12.6434 29.981 12.7726 29.4624C14.7042 29.8898 16.8424 30.197 19.1275 30.3824C20.4324 32.2184 21.7987 33.9059 23.1757 35.3837C22.8831 35.6668 22.5835 35.9427 22.2773 36.2112C20.4475 37.8105 18.6141 38.9452 16.9982 39.5159ZM10.1961 26.6639C7.89655 25.8779 5.99752 24.8564 4.69589 23.7418C3.52616 22.7402 2.93576 21.7457 2.93576 20.9388C2.93576 19.2216 5.49574 17.0313 9.76555 15.5427C10.2837 15.3622 10.8261 15.1918 11.3888 15.0319C11.979 16.9514 12.7531 18.9584 13.6872 20.9878C12.7409 23.0473 11.9558 25.0863 11.3599 27.0284C10.969 26.9165 10.581 26.7949 10.1961 26.6639ZM12.4762 11.1423C11.59 6.61313 12.1785 3.19657 13.6598 2.33907C15.2373 1.42576 18.7259 2.72794 22.4029 5.99289C22.6427 6.20627 22.8786 6.42399 23.1105 6.64592C21.7403 8.1172 20.3866 9.79223 19.0932 11.6174C16.8753 11.823 14.7523 12.1531 12.8004 12.5954C12.6802 12.1139 12.5721 11.6292 12.4762 11.1423ZM32.818 16.1655C32.357 15.3692 31.8789 14.5829 31.3839 13.8071C32.8886 13.9974 34.3302 14.2499 35.684 14.5587C35.2776 15.8614 34.771 17.2233 34.1747 18.6196C33.7389 17.7926 33.2866 16.9745 32.818 16.1655ZM24.5227 8.08589C25.4518 9.0926 26.3824 10.2165 27.2978 11.4359C25.4409 11.3482 23.581 11.3479 21.7241 11.4348C22.6404 10.2266 23.5789 9.1042 24.5227 8.08589ZM16.1741 16.1792C15.7114 16.9816 15.2675 17.7947 14.8428 18.6178C14.2562 17.2264 13.7543 15.8583 13.3444 14.5371C14.6899 14.2361 16.1247 13.99 17.6197 13.8032C17.1193 14.5837 16.6373 15.3761 16.1741 16.1792ZM17.6627 28.2177C16.1181 28.0453 14.6617 27.8119 13.3166 27.519C13.7329 26.1743 14.2459 24.777 14.8452 23.3558C15.2716 24.1796 15.7173 24.9931 16.182 25.7959C16.6598 26.6212 17.1546 27.4295 17.6627 28.2177ZM24.5783 33.9338C23.6233 32.9037 22.671 31.7639 21.7409 30.5382C22.6439 30.5736 23.5644 30.5916 24.5 30.5916C25.4612 30.5916 26.4114 30.5701 27.3466 30.5284C26.4283 31.7763 25.5012 32.9177 24.5783 33.9338ZM34.1937 23.2833C34.8241 24.7201 35.3553 26.11 35.7772 27.4317C34.41 27.7437 32.9337 27.995 31.3782 28.1816C31.8767 27.3914 32.3593 26.5914 32.8259 25.7821C33.3004 24.9594 33.7564 24.1262 34.1937 23.2833ZM31.0809 24.7755C30.3666 26.0165 29.6121 27.2338 28.8186 28.4257C27.3813 28.5275 25.9409 28.578 24.5 28.5773C23.0324 28.5773 21.6049 28.5316 20.2304 28.4424C19.4162 27.2533 18.6473 26.0338 17.9253 24.7866C17.2068 23.546 16.5358 22.2785 15.9134 20.9869C16.5342 19.695 17.2033 18.4269 17.9194 17.1853L17.9193 17.1855C18.6351 15.9436 19.3979 14.7293 20.2059 13.5453C21.6083 13.4392 23.0464 13.384 24.4998 13.384C25.9599 13.384 27.4 13.4398 28.8021 13.5466C29.6019 14.7289 30.3598 15.939 31.0743 17.1747C31.7928 18.4135 32.4708 19.6754 33.1072 20.9583C32.4773 22.2544 31.8015 23.5276 31.0809 24.7755ZM35.2367 2.27902C36.8158 3.18976 37.4299 6.86236 36.4378 11.6785C36.3744 11.9858 36.3033 12.2988 36.2259 12.6162C34.2692 12.1645 32.1447 11.8287 29.9204 11.62C28.6247 9.77473 27.2819 8.09713 25.9341 6.64481C26.2873 6.3043 26.649 5.97262 27.0187 5.65007C30.5003 2.62036 33.7542 1.4241 35.2367 2.27902ZM24.5 16.7278C26.8257 16.7278 28.7111 18.6132 28.7111 20.9388C28.7111 23.2645 26.8257 25.1499 24.5 25.1499C22.1743 25.1499 20.2889 23.2645 20.2889 20.9388C20.2889 18.6132 22.1743 16.7278 24.5 16.7278Z" fill="#00D8FF"/>
</g>
<defs>
<clipPath id="clip0_12_84">
<rect width="47.16" height="42" fill="white" transform="translate(0.919998)"/>
</clipPath>
</defs>
</svg>
