<svg width="43" height="42" viewBox="0 0 43 42" fill="none" xmlns="http://www.w3.org/2000/svg">
<g id="skill-icons:react-dark" clip-path="url(#clip0_12_90)">
<g id="Group">
<path id="Vector" d="M32.6562 0H10.3438C4.9072 0 0.5 4.4072 0.5 9.84375V32.1562C0.5 37.5928 4.9072 42 10.3438 42H32.6562C38.0928 42 42.5 37.5928 42.5 32.1562V9.84375C42.5 4.4072 38.0928 0 32.6562 0Z" fill="#242938"/>
<path id="Vector_2" d="M21.5002 24.1091C23.1907 24.1091 24.5609 22.7387 24.5609 21.0484C24.5609 19.3581 23.1907 17.9876 21.5002 17.9876C19.8098 17.9876 18.4394 19.3581 18.4394 21.0484C18.4394 22.7387 19.8098 24.1091 21.5002 24.1091Z" fill="#00D8FF"/>
<path id="Vector_3" d="M21.5003 14.8252C25.6098 14.8252 29.4273 15.4148 32.3058 16.4059C35.7739 17.5998 37.9062 19.4096 37.9062 21.0484C37.9062 22.7561 35.6465 24.6788 31.9221 25.9127C29.1064 26.8455 25.4012 27.3325 21.5003 27.3325C17.5008 27.3325 13.7134 26.8754 10.866 25.9024C7.26348 24.6711 5.09375 22.7236 5.09375 21.0484C5.09375 19.4229 7.12977 17.627 10.5492 16.435C13.4383 15.4276 17.35 14.8252 21.4997 14.8252H21.5003Z" stroke="#00D8FF" stroke-width="1.46196"/>
<path id="Vector_4" d="M16.0828 17.9547C18.1359 14.3948 20.5537 11.3823 22.8502 9.38405C25.617 6.9761 28.2502 6.03307 29.6697 6.85158C31.149 7.7047 31.6857 10.623 30.8941 14.4657C30.296 17.3708 28.8664 20.8236 26.9175 24.203C24.9194 27.6677 22.6315 30.7202 20.3663 32.7001C17.5 35.2057 14.7288 36.1125 13.2777 35.2756C11.8695 34.4641 11.3311 31.8029 12.0067 28.2452C12.5775 25.239 14.0099 21.5494 16.0822 17.9547H16.0828Z" stroke="#00D8FF" stroke-width="1.46196"/>
<path id="Vector_5" d="M16.0879 24.212C14.0291 20.6561 12.6273 17.0563 12.0423 14.0687C11.338 10.469 11.8359 7.71684 13.2542 6.89588C14.7323 6.04013 17.5284 7.0327 20.4621 9.63769C22.6803 11.6071 24.958 14.5696 26.9124 17.9456C28.9163 21.407 30.4181 24.9139 31.0023 27.865C31.7416 31.5997 31.1433 34.4533 29.6935 35.2925C28.2868 36.1069 25.7125 35.2447 22.9675 32.8826C20.6484 30.8869 18.1671 27.8033 16.0879 24.212Z" stroke="#00D8FF" stroke-width="1.46196"/>
</g>
</g>
<defs>
<clipPath id="clip0_12_90">
<rect width="42" height="42" fill="white" transform="translate(0.5)"/>
</clipPath>
</defs>
</svg>
