<svg width="43" height="42" viewBox="0 0 43 42" fill="none" xmlns="http://www.w3.org/2000/svg">
<rect x="0.5" width="42" height="42" rx="5" fill="#2B9939"/>
<path d="M24.7983 12.5455H28.4886V23.8807C28.4886 25.1534 28.1847 26.267 27.5767 27.2216C26.9744 28.1761 26.1307 28.9205 25.0455 29.4545C23.9602 29.983 22.696 30.2472 21.2528 30.2472C19.804 30.2472 18.5369 29.983 17.4517 29.4545C16.3665 28.9205 15.5227 28.1761 14.9205 27.2216C14.3182 26.267 14.017 25.1534 14.017 23.8807V12.5455H17.7074V23.5653C17.7074 24.2301 17.8523 24.821 18.142 25.3381C18.4375 25.8551 18.8523 26.2614 19.3864 26.5568C19.9205 26.8523 20.5426 27 21.2528 27C21.9688 27 22.5909 26.8523 23.1193 26.5568C23.6534 26.2614 24.0653 25.8551 24.3551 25.3381C24.6506 24.821 24.7983 24.2301 24.7983 23.5653V12.5455Z" fill="white"/>
</svg>
