<svg width="43" height="42" viewBox="0 0 43 42" fill="none" xmlns="http://www.w3.org/2000/svg">
<g id="bi:unity">
<path id="Vector" d="M39.875 29.4V9.79912L23.1012 0V7.52588L29.6716 11.3741C29.9315 11.55 29.9315 11.8991 29.6716 11.9884L21.8885 16.5375C21.6286 16.7134 21.3714 16.6241 21.1981 16.5375L13.415 11.9884C13.1551 11.8991 13.1551 11.4634 13.415 11.3741L19.988 7.52588V0L3.125 9.79912V29.4L9.52475 25.6384V17.9366C9.52475 17.6741 9.86863 17.5009 10.0419 17.5875L17.825 22.1366C18.0849 22.3125 18.1715 22.4884 18.1715 22.7509V31.8491C18.1715 32.1116 17.825 32.2875 17.6517 32.2009L11.0814 28.35L4.68163 32.1116L21.4554 42L38.2318 32.2009L31.832 28.4366L25.2642 32.2875C25.0044 32.4634 24.7445 32.2875 24.7445 31.9384V22.8375C24.7445 22.575 24.9177 22.3125 25.091 22.2259L32.8741 17.6741C33.134 17.5009 33.3912 17.6741 33.3912 18.0259V25.725L39.875 29.4Z" fill="#525252"/>
</g>
</svg>
