<svg width="43" height="42" viewBox="0 0 43 42" fill="none" xmlns="http://www.w3.org/2000/svg">
<g id="fontisto:unreal-engine" clip-path="url(#clip0_12_163)">
<path id="Vector" d="M21.5 0C9.90275 0 0.5 9.40275 0.5 21C0.5 32.5972 9.90275 42 21.5 42C33.0972 42 42.5 32.5972 42.5 21C42.5 9.40275 33.0972 0 21.5 0ZM21.5 3.2305C31.2913 3.24275 39.224 11.1843 39.224 20.9773C39.224 30.779 31.279 38.724 21.4773 38.724C11.6755 38.724 3.7305 30.779 3.7305 20.9773C3.7305 16.0773 5.71675 11.641 8.928 8.42975C10.576 6.77932 12.5336 5.47059 14.6887 4.57866C16.8437 3.68674 19.1537 3.22918 21.486 3.23225L21.5 3.2305ZM21.5 8.078C13.814 9.4325 6.961 16.52 6.961 24.2305C10.7217 17.591 13.233 17.1133 13.9277 17.1133C14.6225 17.1133 14.9883 17.4738 14.9883 18.2735V28.168C14.9883 29.3983 12.5977 29.197 11.8068 29.0763C14.7292 33.425 21.5 33.9238 21.5 33.9238L24.7305 30.6932L27.961 32.3085C33.0605 29.974 36.0372 24.976 36.0372 24.2323C34.8074 25.7637 33.1404 26.8844 31.258 27.4452L31.1898 27.4627C30.761 27.4627 29.5745 27.2423 29.5745 26.6542V14.9415C29.5745 13.9248 31.923 10.822 32.805 9.6915C26.974 11.2193 25.2835 13.881 25.2835 13.881C25.2835 13.881 24.8407 12.922 23.1135 12.922C23.9902 13.7498 24.58 14.8715 24.727 16.128L24.7288 16.1525V26.047C23.7751 26.7209 22.6964 27.1975 21.556 27.4488L21.4965 27.4592C20.3765 27.4592 19.8305 27.0042 19.8305 26.1467C19.8305 25.2892 19.8813 14.5373 19.8813 14.5373C19.8813 14.5373 18.266 15.1305 18.266 11.8108C18.266 10.15 21.4965 8.0745 21.4965 8.0745L21.5 8.078Z" fill="black"/>
</g>
<defs>
<clipPath id="clip0_12_163">
<rect width="42" height="42" fill="white" transform="translate(0.5)"/>
</clipPath>
</defs>
</svg>
